<?xml version="1.0" encoding="UTF-8"?>
<!DOCTYPE svg PUBLIC "-//W3C//DTD SVG 1.1//EN" "http://www.w3.org/Graphics/SVG/1.1/DTD/svg11.dtd">
<!-- Creator: CorelDRAW 2026 -->
<svg xmlns="http://www.w3.org/2000/svg" xml:space="preserve" width="351px" height="234px" version="1.1" style="shape-rendering:geometricPrecision; text-rendering:geometricPrecision; image-rendering:optimizeQuality; fill-rule:evenodd; clip-rule:evenodd"
viewBox="0 0 39.59 26.41"
 xmlns:xlink="http://www.w3.org/1999/xlink"
 xmlns:xodm="http://www.corel.com/coreldraw/odm/2003">
 <defs>
  <style type="text/css">
   <![CDATA[
    .fil0 {fill:gray}
   ]]>
  </style>
 </defs>
 <g id="Layer_x0020_1">
  <metadata id="CorelCorpID_0Corel-Layer"/>
  <path id="ernest_wing_outer" class="fil0" d="M18.2 0.21c10.9,-1.28 20.45,3.51 21.33,10.69 0.88,7.18 -7.25,14.03 -18.14,15.3 -10.9,1.28 -20.45,-3.51 -21.32,-10.69 -0.55,-4.44 2.35,-8.75 7.22,-11.7 0.03,0.93 0.07,1.89 0.12,2.89 0.57,11.83 8.04,19.39 8.04,19.39l5.55 0c0,0 -6.56,-3.85 -9.79,-15.92 -0.72,-2.7 -1.09,-5.32 -1.24,-7.75 2.45,-1.09 5.23,-1.86 8.23,-2.21z"/>
 </g>
</svg>
