<?xml version="1.0" encoding="UTF-8"?>
<!DOCTYPE svg PUBLIC "-//W3C//DTD SVG 1.1//EN" "http://www.w3.org/Graphics/SVG/1.1/DTD/svg11.dtd">
<!-- Creator: CorelDRAW 2026 -->
<svg xmlns="http://www.w3.org/2000/svg" xml:space="preserve" width="542px" height="513px" version="1.1" style="shape-rendering:geometricPrecision; text-rendering:geometricPrecision; image-rendering:optimizeQuality; fill-rule:evenodd; clip-rule:evenodd"
viewBox="0 0 42.09 39.89"
 xmlns:xlink="http://www.w3.org/1999/xlink"
 xmlns:xodm="http://www.corel.com/coreldraw/odm/2003">
 <defs>
  <style type="text/css">
   <![CDATA[
    .fil0 {fill:#FD9A3F}
   ]]>
  </style>
 </defs>
 <g id="Layer_x0020_1">
  <metadata id="CorelCorpID_0Corel-Layer"/>
  <g id="_43635274848">
   <polygon class="fil0" points="41.59,20.81 42.09,21.46 18.51,39.89 18,39.24 "/>
   <g>
    <path class="fil0" d="M40.69 19.77c0.17,0.22 0.34,0.43 0.5,0.65 -7.86,6.14 -15.72,12.28 -23.58,18.43 -0.17,-0.22 -0.34,-0.44 -0.51,-0.65 7.87,-6.14 15.73,-12.29 23.59,-18.43z"/>
    <path class="fil0" d="M39.79 18.73c0.17,0.22 0.34,0.43 0.5,0.65 -7.86,6.14 -15.72,12.28 -23.58,18.43 -0.17,-0.22 -0.34,-0.44 -0.51,-0.65 7.87,-6.14 15.73,-12.29 23.59,-18.43z"/>
    <path class="fil0" d="M38.89 17.69c0.17,0.22 0.33,0.43 0.5,0.65 -7.86,6.14 -15.72,12.28 -23.58,18.42 -0.17,-0.21 -0.34,-0.43 -0.51,-0.64 7.86,-6.15 15.73,-12.29 23.59,-18.43z"/>
    <path class="fil0" d="M37.99 16.65c0.17,0.22 0.33,0.43 0.5,0.65 -7.86,6.14 -15.72,12.28 -23.58,18.42 -0.17,-0.21 -0.34,-0.43 -0.51,-0.64 7.86,-6.15 15.73,-12.29 23.59,-18.43z"/>
    <path class="fil0" d="M37.09 15.61c0.17,0.22 0.33,0.43 0.5,0.65 -7.86,6.14 -15.72,12.28 -23.58,18.42 -0.17,-0.21 -0.34,-0.43 -0.51,-0.64 7.86,-6.15 15.73,-12.29 23.59,-18.43z"/>
    <path class="fil0" d="M36.19 14.57c0.17,0.21 0.33,0.43 0.5,0.65 -7.86,6.14 -15.72,12.28 -23.58,18.42 -0.17,-0.21 -0.34,-0.43 -0.51,-0.65 7.86,-6.14 15.73,-12.28 23.59,-18.42z"/>
    <path class="fil0" d="M35.29 13.53c0.17,0.21 0.33,0.43 0.5,0.65 -7.86,6.14 -15.72,12.28 -23.58,18.42 -0.17,-0.21 -0.34,-0.43 -0.51,-0.65 7.86,-6.14 15.73,-12.28 23.59,-18.42z"/>
    <path class="fil0" d="M34.39 12.49c0.17,0.21 0.33,0.43 0.5,0.65 -7.86,6.14 -15.72,12.28 -23.58,18.42 -0.17,-0.21 -0.34,-0.43 -0.51,-0.65 7.86,-6.14 15.73,-12.28 23.59,-18.42z"/>
    <path class="fil0" d="M33.49 11.45c0.16,0.21 0.33,0.43 0.5,0.64 -7.86,6.15 -15.72,12.29 -23.58,18.43 -0.17,-0.22 -0.34,-0.43 -0.51,-0.65 7.86,-6.14 15.72,-12.28 23.59,-18.42z"/>
    <path class="fil0" d="M32.59 10.41c0.16,0.21 0.33,0.43 0.5,0.64 -7.86,6.15 -15.72,12.29 -23.58,18.43 -0.17,-0.22 -0.34,-0.43 -0.51,-0.65 7.86,-6.14 15.72,-12.28 23.59,-18.42z"/>
    <path class="fil0" d="M31.69 9.37c0.16,0.21 0.33,0.43 0.5,0.64 -7.86,6.15 -15.72,12.29 -23.58,18.43 -0.17,-0.22 -0.34,-0.43 -0.51,-0.65 7.86,-6.14 15.72,-12.28 23.59,-18.42z"/>
    <path class="fil0" d="M30.79 8.33c0.16,0.21 0.33,0.43 0.5,0.64 -7.86,6.14 -15.72,12.29 -23.58,18.43 -0.17,-0.22 -0.34,-0.43 -0.51,-0.65 7.86,-6.14 15.72,-12.28 23.59,-18.42z"/>
    <path class="fil0" d="M29.89 7.28c0.16,0.22 0.33,0.44 0.5,0.65 -7.86,6.14 -15.72,12.29 -23.58,18.43 -0.17,-0.22 -0.34,-0.43 -0.51,-0.65 7.86,-6.14 15.72,-12.28 23.59,-18.43z"/>
    <path class="fil0" d="M28.99 6.24c0.16,0.22 0.33,0.44 0.5,0.65 -7.86,6.14 -15.72,12.29 -23.58,18.43 -0.17,-0.22 -0.34,-0.43 -0.51,-0.65 7.86,-6.14 15.72,-12.28 23.59,-18.43z"/>
    <path class="fil0" d="M28.08 5.2c0.17,0.22 0.34,0.44 0.51,0.65 -7.86,6.14 -15.72,12.28 -23.58,18.43 -0.17,-0.22 -0.34,-0.44 -0.51,-0.65 7.86,-6.14 15.72,-12.28 23.58,-18.43z"/>
    <path class="fil0" d="M27.18 4.16c0.17,0.22 0.34,0.43 0.51,0.65 -7.86,6.14 -15.72,12.28 -23.58,18.43 -0.17,-0.22 -0.34,-0.44 -0.51,-0.65 7.86,-6.14 15.72,-12.29 23.58,-18.43z"/>
    <path class="fil0" d="M26.28 3.12c0.17,0.22 0.34,0.43 0.51,0.65 -7.86,6.14 -15.72,12.28 -23.58,18.43 -0.17,-0.22 -0.34,-0.44 -0.51,-0.65 7.86,-6.14 15.72,-12.29 23.58,-18.43z"/>
    <path class="fil0" d="M25.38 2.08c0.17,0.22 0.34,0.43 0.51,0.65 -7.86,6.14 -15.72,12.28 -23.58,18.42 -0.17,-0.21 -0.34,-0.43 -0.51,-0.64 7.86,-6.14 15.72,-12.29 23.58,-18.43z"/>
    <path class="fil0" d="M24.48 1.04c0.17,0.22 0.34,0.43 0.51,0.65 -7.86,6.14 -15.72,12.28 -23.58,18.42 -0.17,-0.21 -0.34,-0.43 -0.51,-0.64 7.86,-6.15 15.72,-12.29 23.58,-18.43z"/>
   </g>
   <polygon id="ios5_stripes" class="fil0" points="23.58,0 24.09,0.65 0.51,19.07 0,18.43 "/>
  </g>
 </g>
</svg>
