<?xml version="1.0" encoding="UTF-8"?>
<!DOCTYPE svg PUBLIC "-//W3C//DTD SVG 1.1//EN" "http://www.w3.org/Graphics/SVG/1.1/DTD/svg11.dtd">
<!-- Creator: CorelDRAW 2026 -->
<svg xmlns="http://www.w3.org/2000/svg" xml:space="preserve" width="1553px" height="1443px" version="1.1" style="shape-rendering:geometricPrecision; text-rendering:geometricPrecision; image-rendering:optimizeQuality; fill-rule:evenodd; clip-rule:evenodd"
viewBox="0 0 266.83 247.82"
 xmlns:xlink="http://www.w3.org/1999/xlink"
 xmlns:xodm="http://www.corel.com/coreldraw/odm/2003">
 <defs>
  <style type="text/css">
   <![CDATA[
    .fil0 {fill:#5B5D5C}
   ]]>
  </style>
 </defs>
 <g id="Layer_x0020_1">
  <metadata id="CorelCorpID_0Corel-Layer"/>
  <path id="carbonfibre" class="fil0" d="M243.23 110.74c1.92,0 3.83,0 5.75,0 0,-1.91 0,-3.83 0,-5.74 2.23,0 4.47,0 6.71,0 0,2.38 0,4.76 0,7.15 -1.92,0 -3.83,0 -5.75,0 0,1.91 0,3.82 0,5.73 -1.91,0 -3.83,0 -5.75,0 0,1.91 0,3.82 0,5.73 -1.91,0 -3.83,0 -5.74,0 0,1.91 0,3.82 0,5.74 -1.92,0 -3.83,0 -5.75,0 0,1.91 0,3.82 0,5.73 -1.91,0 -3.83,0 -5.74,0 0,1.91 0,3.82 0,5.73 -1.92,0 -3.84,0 -5.75,0 0,1.91 0,3.82 0,5.73 -1.92,0 -3.83,0 -5.75,0 0,1.92 0,3.83 0,5.74 -1.91,0 -3.83,0 -5.74,0 0,1.91 0,3.82 0,5.73 -1.92,0 -3.84,0 -5.75,0 0,1.91 0,3.82 0,5.73 -1.92,0 -3.83,0 -5.75,0 0,1.92 0,3.83 0,5.74 -1.91,0 -3.83,0 -5.74,0 0,1.91 0,3.82 0,5.73 -1.92,0 -3.83,0 -5.75,0 0,1.91 0,3.82 0,5.73 -1.92,0 -3.83,0 -5.75,0 0,1.92 0,3.83 0,5.74 -1.91,0 -3.83,0 -5.74,0 0,1.91 0,3.82 0,5.73 -1.92,0 -3.83,0 -5.75,0 0,1.91 0,3.82 0,5.73 -1.92,0 -3.83,0 -5.75,0 0,1.92 0,3.83 0,5.74 -1.91,0 -3.83,0 -5.74,0 0,1.91 0,3.82 0,5.73 -1.92,0 -3.83,0 -5.75,0 0,1.91 0,3.82 0,5.73 -1.91,0 -3.83,0 -5.75,0 0,1.92 0,3.83 0,5.74 -1.91,0 -3.83,0 -5.74,0 0,1.91 0,3.82 0,5.73 -1.92,0 -3.83,0 -5.75,0 0,1.91 0,3.82 0,5.73 -1.91,0 -3.83,0 -5.75,0 0,1.91 0,3.83 0,5.74 -2.23,0 -4.47,0 -6.71,0 0,-2.38 0,-4.76 0,-7.15 1.92,0 3.84,0 5.75,0 0,-1.91 0,-3.82 0,-5.73 1.92,0 3.83,0 5.75,0 0,-1.91 0,-3.82 0,-5.73 1.91,0 3.83,0 5.74,0 0,-1.91 0,-3.82 0,-5.74 1.92,0 3.84,0 5.75,0 0,-1.91 0,-3.82 0,-5.73 1.92,0 3.83,0 5.75,0 0,-1.91 0,-3.82 0,-5.73 1.91,0 3.83,0 5.74,0 0,-1.91 0,-3.82 0,-5.73 1.92,0 3.83,0 5.75,0 0,-1.92 0,-3.83 0,-5.74 1.92,0 3.83,0 5.75,0 0,-1.91 0,-3.82 0,-5.73 1.91,0 3.83,0 5.74,0 0,-1.91 0,-3.82 0,-5.73 1.92,0 3.83,0 5.75,0 0,-1.92 0,-3.83 0,-5.74 1.92,0 3.83,0 5.75,0 0,-1.91 0,-3.82 0,-5.73 1.91,0 3.83,0 5.74,0 0,-1.91 0,-3.82 0,-5.73 1.92,0 3.83,0 5.75,0 0,-1.92 0,-3.83 0,-5.74 1.92,0 3.83,0 5.75,0 0,-1.91 0,-3.82 0,-5.73 1.91,0 3.83,0 5.74,0 0,-1.91 0,-3.82 0,-5.73 1.92,0 3.83,0 5.75,0 0,-1.92 0,-3.83 0,-5.74 1.91,0 3.83,0 5.75,0 0,-1.91 0,-3.82 0,-5.73 1.91,0 3.83,0 5.74,0 0,-1.91 0,-3.82 0,-5.73 1.92,0 3.83,0 5.75,0 0,-1.91 0,-3.83 0,-5.74 1.91,0 3.83,0 5.75,0 0,-1.91 0,-3.82 0,-5.73 1.91,0 3.83,0 5.74,0 0,-1.91 0,-3.82 0,-5.73zm11.14 9.54l5.75 0 0 -5.73 6.71 0 0 7.14 -5.75 0 0 5.73 -5.74 0 0 5.74 -5.75 0 0 5.73 -5.75 0 0 5.73 -5.74 0 0 5.74 -5.75 0 0 5.73 -5.75 0 0 5.73 -5.74 0 0 5.74 -5.75 0 0 5.73 -5.75 0 0 5.73 -5.74 0 0 5.74 -5.75 0 0 5.73 -5.75 0 0 5.73 -5.74 0 0 5.74 -5.75 0 0 5.73 -5.74 0 0 5.73 -5.75 0 0 5.74 -5.75 0 0 5.73 -5.74 0 0 5.73 -5.75 0 0 5.74 -5.75 0 0 5.73 -5.74 0 0 5.73 -6.71 0 0 -7.14 5.74 0 0 -5.73 5.75 0 0 -5.74 5.75 0 0 -5.73 5.74 0 0 -5.73 5.75 0 0 -5.74 5.75 0 0 -5.73 5.74 0 0 -5.73 5.75 0 0 -5.74 5.74 0 0 -5.73 5.75 0 0 -5.73 5.75 0 0 -5.74 5.74 0 0 -5.73 5.75 0 0 -5.73 5.75 0 0 -5.74 5.74 0 0 -5.73 5.75 0 0 -5.73 5.75 0 0 -5.73 5.74 0 0 -5.74 5.75 0 0 -5.73 5.75 0 0 -5.73 5.74 0 0 -5.74zm-22.28 -19.09c1.92,0 3.83,0 5.75,0 0,-1.91 0,-3.82 0,-5.73 2.23,0 4.47,0 6.71,0 0,2.38 0,4.76 0,7.14 -1.92,0 -3.83,0 -5.75,0 0,1.91 0,3.82 0,5.73 -1.92,0 -3.83,0 -5.75,0 0,1.91 0,3.83 0,5.74 -1.91,0 -3.83,0 -5.74,0 0,1.91 0,3.82 0,5.73 -1.92,0 -3.83,0 -5.75,0 0,1.91 0,3.82 0,5.73 -1.91,0 -3.83,0 -5.75,0 0,1.91 0,3.82 0,5.74 -1.91,0 -3.83,0 -5.74,0 0,1.91 0,3.82 0,5.73 -1.92,0 -3.83,0 -5.75,0 0,1.91 0,3.82 0,5.73 -1.91,0 -3.83,0 -5.75,0 0,1.91 0,3.82 0,5.74 -1.91,0 -3.83,0 -5.74,0 0,1.91 0,3.82 0,5.73 -1.92,0 -3.83,0 -5.75,0 0,1.91 0,3.82 0,5.73 -1.91,0 -3.83,0 -5.74,0 0,1.91 0,3.82 0,5.74 -1.92,0 -3.84,0 -5.75,0 0,1.91 0,3.82 0,5.73 -1.92,0 -3.83,0 -5.75,0 0,1.91 0,3.82 0,5.73 -1.91,0 -3.83,0 -5.74,0 0,1.91 0,3.82 0,5.74 -1.92,0 -3.84,0 -5.75,0 0,1.91 0,3.82 0,5.73 -1.92,0 -3.83,0 -5.75,0 0,1.91 0,3.82 0,5.73 -1.91,0 -3.83,0 -5.74,0 0,1.91 0,3.82 0,5.73 -1.92,0 -3.84,0 -5.75,0 0,1.92 0,3.83 0,5.74 -1.92,0 -3.83,0 -5.75,0 0,1.91 0,3.82 0,5.73 -1.91,0 -3.83,0 -5.74,0 0,1.91 0,3.82 0,5.73 -1.92,0 -3.83,0 -5.75,0 0,1.92 0,3.83 0,5.74 -1.92,0 -3.83,0 -5.75,0 0,1.91 0,3.82 0,5.73 -2.23,0 -4.47,0 -6.71,0 0,-2.38 0,-4.76 0,-7.14 1.92,0 3.83,0 5.75,0 0,-1.91 0,-3.82 0,-5.73 1.92,0 3.83,0 5.75,0 0,-1.92 0,-3.83 0,-5.74 1.91,0 3.83,0 5.74,0 0,-1.91 0,-3.82 0,-5.73 1.92,0 3.83,0 5.75,0 0,-1.91 0,-3.82 0,-5.73 1.91,0 3.83,0 5.75,0 0,-1.92 0,-3.83 0,-5.74 1.91,0 3.83,0 5.74,0 0,-1.91 0,-3.82 0,-5.73 1.92,0 3.83,0 5.75,0 0,-1.91 0,-3.82 0,-5.73 1.91,0 3.83,0 5.75,0 0,-1.91 0,-3.83 0,-5.74 1.91,0 3.83,0 5.74,0 0,-1.91 0,-3.82 0,-5.73 1.92,0 3.83,0 5.75,0 0,-1.91 0,-3.82 0,-5.73 1.91,0 3.83,0 5.75,0 0,-1.91 0,-3.83 0,-5.74 1.91,0 3.83,0 5.74,0 0,-1.91 0,-3.82 0,-5.73 1.92,0 3.83,0 5.75,0 0,-1.91 0,-3.82 0,-5.73 1.91,0 3.83,0 5.74,0 0,-1.91 0,-3.83 0,-5.74 1.92,0 3.84,0 5.75,0 0,-1.91 0,-3.82 0,-5.73 1.92,0 3.83,0 5.75,0 0,-1.91 0,-3.82 0,-5.73 1.91,0 3.83,0 5.74,0 0,-1.91 0,-3.83 0,-5.74 1.92,0 3.84,0 5.75,0 0,-1.91 0,-3.82 0,-5.73 1.92,0 3.83,0 5.75,0 0,-1.91 0,-3.82 0,-5.73 1.91,0 3.83,0 5.74,0 0,-1.91 0,-3.82 0,-5.74 1.92,0 3.83,0 5.75,0 0,-1.91 0,-3.82 0,-5.73zm-11.14 -9.55c1.91,0 3.83,0 5.75,0 0,-1.91 0,-3.82 0,-5.73 2.23,0 4.47,0 6.71,0 0,2.38 0,4.76 0,7.14 -1.92,0 -3.84,0 -5.75,0 0,1.92 0,3.83 0,5.74 -1.92,0 -3.83,0 -5.75,0 0,1.91 0,3.82 0,5.73 -1.91,0 -3.83,0 -5.74,0 0,1.91 0,3.82 0,5.73 -1.92,0 -3.84,0 -5.75,0 0,1.91 0,3.83 0,5.74 -1.92,0 -3.83,0 -5.75,0 0,1.91 0,3.82 0,5.73 -1.91,0 -3.83,0 -5.74,0 0,1.91 0,3.82 0,5.73 -1.92,0 -3.83,0 -5.75,0 0,1.91 0,3.83 0,5.74 -1.92,0 -3.83,0 -5.75,0 0,1.91 0,3.82 0,5.73 -1.91,0 -3.83,0 -5.74,0 0,1.91 0,3.82 0,5.73 -1.92,0 -3.83,0 -5.75,0 0,1.91 0,3.83 0,5.74 -1.92,0 -3.83,0 -5.75,0 0,1.91 0,3.82 0,5.73 -1.91,0 -3.83,0 -5.74,0 0,1.91 0,3.82 0,5.73 -1.92,0 -3.83,0 -5.75,0 0,1.91 0,3.83 0,5.74 -1.91,0 -3.83,0 -5.75,0 0,1.91 0,3.82 0,5.73 -1.91,0 -3.83,0 -5.74,0 0,1.91 0,3.82 0,5.73 -1.92,0 -3.83,0 -5.75,0 0,1.91 0,3.82 0,5.74 -1.91,0 -3.83,0 -5.75,0 0,1.91 0,3.82 0,5.73 -1.91,0 -3.83,0 -5.74,0 0,1.91 0,3.82 0,5.73 -1.92,0 -3.83,0 -5.75,0 0,1.91 0,3.82 0,5.74 -1.91,0 -3.83,0 -5.75,0 0,1.91 0,3.82 0,5.73 -1.91,0 -3.83,0 -5.74,0 0,1.91 0,3.82 0,5.73 -1.92,0 -3.83,0 -5.75,0 0,1.91 0,3.82 0,5.74 -2.23,0 -4.47,0 -6.71,0 0,-2.39 0,-4.77 0,-7.15 1.92,0 3.83,0 5.75,0 0,-1.91 0,-3.82 0,-5.73 1.91,0 3.83,0 5.75,0 0,-1.91 0,-3.82 0,-5.73 1.91,0 3.83,0 5.74,0 0,-1.91 0,-3.83 0,-5.74 1.92,0 3.83,0 5.75,0 0,-1.91 0,-3.82 0,-5.73 1.91,0 3.83,0 5.74,0 0,-1.91 0,-3.82 0,-5.73 1.92,0 3.84,0 5.75,0 0,-1.91 0,-3.83 0,-5.74 1.92,0 3.83,0 5.75,0 0,-1.91 0,-3.82 0,-5.73 1.91,0 3.83,0 5.74,0 0,-1.91 0,-3.82 0,-5.73 1.92,0 3.84,0 5.75,0 0,-1.91 0,-3.82 0,-5.74 1.92,0 3.83,0 5.75,0 0,-1.91 0,-3.82 0,-5.73 1.91,0 3.83,0 5.74,0 0,-1.91 0,-3.82 0,-5.73 1.92,0 3.83,0 5.75,0 0,-1.91 0,-3.82 0,-5.74 1.92,0 3.83,0 5.75,0 0,-1.91 0,-3.82 0,-5.73 1.91,0 3.83,0 5.74,0 0,-1.91 0,-3.82 0,-5.73 1.92,0 3.83,0 5.75,0 0,-1.91 0,-3.82 0,-5.74 1.92,0 3.83,0 5.75,0 0,-1.91 0,-3.82 0,-5.73 1.91,0 3.83,0 5.74,0 0,-1.91 0,-3.82 0,-5.73 1.92,0 3.83,0 5.75,0 0,-1.91 0,-3.82 0,-5.74 1.91,0 3.83,0 5.75,0 0,-1.91 0,-3.82 0,-5.73 1.91,0 3.83,0 5.74,0 0,-1.91 0,-3.82 0,-5.73 1.92,0 3.83,0 5.75,0 0,-1.91 0,-3.82 0,-5.74zm-11.14 -9.54c1.91,0 3.83,0 5.74,0 0,-1.91 0,-3.82 0,-5.73 2.24,0 4.48,0 6.71,0 0,2.38 0,4.76 0,7.14 -1.91,0 -3.83,0 -5.74,0 0,1.91 0,3.82 0,5.73 -1.92,0 -3.83,0 -5.75,0 0,1.91 0,3.82 0,5.73 -1.91,0 -3.83,0 -5.75,0 0,1.92 0,3.83 0,5.74 -1.91,0 -3.83,0 -5.74,0 0,1.91 0,3.82 0,5.73 -1.92,0 -3.83,0 -5.75,0 0,1.91 0,3.82 0,5.73 -1.91,0 -3.83,0 -5.75,0 0,1.92 0,3.83 0,5.74 -1.91,0 -3.83,0 -5.74,0 0,1.91 0,3.82 0,5.73 -1.92,0 -3.83,0 -5.75,0 0,1.91 0,3.82 0,5.73 -1.91,0 -3.83,0 -5.74,0 0,1.92 0,3.83 0,5.74 -1.92,0 -3.84,0 -5.75,0 0,1.91 0,3.82 0,5.73 -1.92,0 -3.83,0 -5.75,0 0,1.91 0,3.82 0,5.73 -1.91,0 -3.83,0 -5.74,0 0,1.92 0,3.83 0,5.74 -1.92,0 -3.84,0 -5.75,0 0,1.91 0,3.82 0,5.73 -1.92,0 -3.83,0 -5.75,0 0,1.91 0,3.82 0,5.73 -1.91,0 -3.83,0 -5.74,0 0,1.91 0,3.83 0,5.74 -1.92,0 -3.83,0 -5.75,0 0,1.91 0,3.82 0,5.73 -1.92,0 -3.83,0 -5.75,0 0,1.91 0,3.82 0,5.73 -1.91,0 -3.83,0 -5.74,0 0,1.91 0,3.83 0,5.74 -1.92,0 -3.83,0 -5.75,0 0,1.91 0,3.82 0,5.73 -1.92,0 -3.83,0 -5.75,0 0,1.91 0,3.82 0,5.73 -1.91,0 -3.83,0 -5.74,0 0,1.91 0,3.83 0,5.74 -1.92,0 -3.83,0 -5.75,0 0,1.91 0,3.82 0,5.73 -2.24,0 -4.47,0 -6.71,0 0,-2.38 0,-4.76 0,-7.14 1.92,0 3.83,0 5.75,0 0,-1.91 0,-3.82 0,-5.74 1.91,0 3.83,0 5.74,0 0,-1.91 0,-3.82 0,-5.73 1.92,0 3.83,0 5.75,0 0,-1.91 0,-3.82 0,-5.73 1.92,0 3.83,0 5.75,0 0,-1.91 0,-3.82 0,-5.74 1.91,0 3.83,0 5.74,0 0,-1.91 0,-3.82 0,-5.73 1.92,0 3.83,0 5.75,0 0,-1.91 0,-3.82 0,-5.73 1.92,0 3.83,0 5.75,0 0,-1.91 0,-3.82 0,-5.74 1.91,0 3.83,0 5.74,0 0,-1.91 0,-3.82 0,-5.73 1.92,0 3.83,0 5.75,0 0,-1.91 0,-3.82 0,-5.73 1.91,0 3.83,0 5.75,0 0,-1.91 0,-3.82 0,-5.74 1.91,0 3.83,0 5.74,0 0,-1.91 0,-3.82 0,-5.73 1.92,0 3.83,0 5.75,0 0,-1.91 0,-3.82 0,-5.73 1.91,0 3.83,0 5.75,0 0,-1.91 0,-3.82 0,-5.73 1.91,0 3.83,0 5.74,0 0,-1.92 0,-3.83 0,-5.74 1.92,0 3.83,0 5.75,0 0,-1.91 0,-3.82 0,-5.73 1.91,0 3.83,0 5.75,0 0,-1.91 0,-3.82 0,-5.73 1.91,0 3.83,0 5.74,0 0,-1.92 0,-3.83 0,-5.74 1.92,0 3.83,0 5.75,0 0,-1.91 0,-3.82 0,-5.73 1.91,0 3.83,0 5.74,0 0,-1.91 0,-3.82 0,-5.73 1.92,0 3.84,0 5.75,0 0,-1.92 0,-3.83 0,-5.74 1.92,0 3.83,0 5.75,0 0,-1.91 0,-3.82 0,-5.73zm-11.14 -9.55c1.91,0 3.83,0 5.74,0 0,-1.91 0,-3.82 0,-5.73 2.24,0 4.48,0 6.71,0 0,2.38 0,4.76 0,7.14 -1.91,0 -3.83,0 -5.74,0 0,1.91 0,3.82 0,5.74 -1.92,0 -3.83,0 -5.75,0 0,1.91 0,3.82 0,5.73 -1.92,0 -3.83,0 -5.75,0 0,1.91 0,3.82 0,5.73 -1.91,0 -3.83,0 -5.74,0 0,1.91 0,3.82 0,5.74 -1.92,0 -3.83,0 -5.75,0 0,1.91 0,3.82 0,5.73 -1.92,0 -3.83,0 -5.75,0 0,1.91 0,3.82 0,5.73 -1.91,0 -3.83,0 -5.74,0 0,1.91 0,3.82 0,5.74 -1.92,0 -3.83,0 -5.75,0 0,1.91 0,3.82 0,5.73 -1.92,0 -3.83,0 -5.75,0 0,1.91 0,3.82 0,5.73 -1.91,0 -3.83,0 -5.74,0 0,1.91 0,3.82 0,5.73 -1.92,0 -3.83,0 -5.75,0 0,1.92 0,3.83 0,5.74 -1.91,0 -3.83,0 -5.75,0 0,1.91 0,3.82 0,5.73 -1.91,0 -3.83,0 -5.74,0 0,1.91 0,3.82 0,5.73 -1.92,0 -3.83,0 -5.75,0 0,1.92 0,3.83 0,5.74 -1.91,0 -3.83,0 -5.75,0 0,1.91 0,3.82 0,5.73 -1.91,0 -3.83,0 -5.74,0 0,1.91 0,3.82 0,5.73 -1.92,0 -3.83,0 -5.75,0 0,1.92 0,3.83 0,5.74 -1.91,0 -3.83,0 -5.74,0 0,1.91 0,3.82 0,5.73 -1.92,0 -3.84,0 -5.75,0 0,1.91 0,3.82 0,5.73 -1.92,0 -3.83,0 -5.75,0 0,1.92 0,3.83 0,5.74 -1.91,0 -3.83,0 -5.74,0 0,1.91 0,3.82 0,5.73 -1.92,0 -3.84,0 -5.75,0 0,1.91 0,3.82 0,5.73 -2.24,0 -4.47,0 -6.71,0 0,-2.38 0,-4.76 0,-7.14 1.91,0 3.83,0 5.75,0 0,-1.91 0,-3.82 0,-5.73 1.91,0 3.83,0 5.74,0 0,-1.91 0,-3.82 0,-5.73 1.92,0 3.83,0 5.75,0 0,-1.92 0,-3.83 0,-5.74 1.91,0 3.83,0 5.75,0 0,-1.91 0,-3.82 0,-5.73 1.91,0 3.83,0 5.74,0 0,-1.91 0,-3.82 0,-5.73 1.92,0 3.83,0 5.75,0 0,-1.92 0,-3.83 0,-5.74 1.91,0 3.83,0 5.75,0 0,-1.91 0,-3.82 0,-5.73 1.91,0 3.83,0 5.74,0 0,-1.91 0,-3.82 0,-5.73 1.92,0 3.83,0 5.75,0 0,-1.92 0,-3.83 0,-5.74 1.91,0 3.83,0 5.74,0 0,-1.91 0,-3.82 0,-5.73 1.92,0 3.84,0 5.75,0 0,-1.91 0,-3.82 0,-5.73 1.92,0 3.83,0 5.75,0 0,-1.92 0,-3.83 0,-5.74 1.91,0 3.83,0 5.74,0 0,-1.91 0,-3.82 0,-5.73 1.92,0 3.84,0 5.75,0 0,-1.91 0,-3.82 0,-5.73 1.92,0 3.83,0 5.75,0 0,-1.91 0,-3.83 0,-5.74 1.91,0 3.83,0 5.74,0 0,-1.91 0,-3.82 0,-5.73 1.92,0 3.83,0 5.75,0 0,-1.91 0,-3.82 0,-5.73 1.92,0 3.83,0 5.75,0 0,-1.91 0,-3.83 0,-5.74 1.91,0 3.83,0 5.74,0 0,-1.91 0,-3.82 0,-5.73 1.92,0 3.83,0 5.75,0 0,-1.91 0,-3.82 0,-5.73 1.92,0 3.83,0 5.75,0 0,-1.91 0,-3.83 0,-5.74zm-11.14 -9.54c1.91,0 3.83,0 5.74,0 0,-1.91 0,-3.82 0,-5.74 2.24,0 4.47,0 6.71,0 0,2.39 0,4.77 0,7.15 -1.91,0 -3.83,0 -5.75,0 0,1.91 0,3.82 0,5.73 -1.91,0 -3.83,0 -5.74,0 0,1.91 0,3.82 0,5.73 -1.92,0 -3.83,0 -5.75,0 0,1.91 0,3.83 0,5.74 -1.91,0 -3.83,0 -5.74,0 0,1.91 0,3.82 0,5.73 -1.92,0 -3.84,0 -5.75,0 0,1.91 0,3.82 0,5.73 -1.92,0 -3.83,0 -5.75,0 0,1.91 0,3.83 0,5.74 -1.91,0 -3.83,0 -5.74,0 0,1.91 0,3.82 0,5.73 -1.92,0 -3.84,0 -5.75,0 0,1.91 0,3.82 0,5.73 -1.92,0 -3.83,0 -5.75,0 0,1.91 0,3.82 0,5.74 -1.91,0 -3.83,0 -5.74,0 0,1.91 0,3.82 0,5.73 -1.92,0 -3.83,0 -5.75,0 0,1.91 0,3.82 0,5.73 -1.92,0 -3.83,0 -5.75,0 0,1.91 0,3.82 0,5.74 -1.91,0 -3.83,0 -5.74,0 0,1.91 0,3.82 0,5.73 -1.92,0 -3.83,0 -5.75,0 0,1.91 0,3.82 0,5.73 -1.92,0 -3.83,0 -5.75,0 0,1.91 0,3.82 0,5.74 -1.91,0 -3.83,0 -5.74,0 0,1.91 0,3.82 0,5.73 -1.92,0 -3.83,0 -5.75,0 0,1.91 0,3.82 0,5.73 -1.92,0 -3.83,0 -5.75,0 0,1.91 0,3.82 0,5.74 -1.91,0 -3.83,0 -5.74,0 0,1.91 0,3.82 0,5.73 -1.92,0 -3.83,0 -5.75,0 0,1.91 0,3.82 0,5.73 -1.91,0 -3.83,0 -5.75,0 0,1.91 0,3.82 0,5.73 -1.91,0 -3.83,0 -5.74,0 0,1.92 0,3.83 0,5.74 -2.24,0 -4.48,0 -6.71,0 0,-2.38 0,-4.76 0,-7.14 1.91,0 3.83,0 5.74,0 0,-1.92 0,-3.83 0,-5.74 1.92,0 3.84,0 5.75,0 0,-1.91 0,-3.82 0,-5.73 1.92,0 3.83,0 5.75,0 0,-1.91 0,-3.82 0,-5.73 1.91,0 3.83,0 5.74,0 0,-1.91 0,-3.83 0,-5.74 1.92,0 3.84,0 5.75,0 0,-1.91 0,-3.82 0,-5.73 1.92,0 3.83,0 5.75,0 0,-1.91 0,-3.82 0,-5.73 1.91,0 3.83,0 5.74,0 0,-1.91 0,-3.83 0,-5.74 1.92,0 3.83,0 5.75,0 0,-1.91 0,-3.82 0,-5.73 1.92,0 3.83,0 5.75,0 0,-1.91 0,-3.82 0,-5.73 1.91,0 3.83,0 5.74,0 0,-1.91 0,-3.83 0,-5.74 1.92,0 3.83,0 5.75,0 0,-1.91 0,-3.82 0,-5.73 1.92,0 3.83,0 5.75,0 0,-1.91 0,-3.82 0,-5.73 1.91,0 3.83,0 5.74,0 0,-1.91 0,-3.83 0,-5.74 1.92,0 3.83,0 5.75,0 0,-1.91 0,-3.82 0,-5.73 1.91,0 3.83,0 5.75,0 0,-1.91 0,-3.82 0,-5.73 1.91,0 3.83,0 5.74,0 0,-1.91 0,-3.82 0,-5.74 1.92,0 3.83,0 5.75,0 0,-1.91 0,-3.82 0,-5.73 1.91,0 3.83,0 5.75,0 0,-1.91 0,-3.82 0,-5.73 1.91,0 3.83,0 5.74,0 0,-1.91 0,-3.82 0,-5.74 1.92,0 3.83,0 5.75,0 0,-1.91 0,-3.82 0,-5.73 1.91,0 3.83,0 5.75,0 0,-1.91 0,-3.82 0,-5.73zm-11.15 -9.55c1.92,0 3.83,0 5.75,0 0,-1.91 0,-3.82 0,-5.73 2.24,0 4.47,0 6.71,0 0,2.38 0,4.76 0,7.14 -1.92,0 -3.83,0 -5.75,0 0,1.91 0,3.82 0,5.73 -1.91,0 -3.83,0 -5.74,0 0,1.92 0,3.83 0,5.74 -1.92,0 -3.83,0 -5.75,0 0,1.91 0,3.82 0,5.73 -1.92,0 -3.83,0 -5.75,0 0,1.91 0,3.82 0,5.73 -1.91,0 -3.83,0 -5.74,0 0,1.92 0,3.83 0,5.74 -1.92,0 -3.83,0 -5.75,0 0,1.91 0,3.82 0,5.73 -1.91,0 -3.83,0 -5.75,0 0,1.91 0,3.82 0,5.73 -1.91,0 -3.83,0 -5.74,0 0,1.92 0,3.83 0,5.74 -1.92,0 -3.83,0 -5.75,0 0,1.91 0,3.82 0,5.73 -1.91,0 -3.83,0 -5.75,0 0,1.91 0,3.82 0,5.73 -1.91,0 -3.83,0 -5.74,0 0,1.91 0,3.83 0,5.74 -1.92,0 -3.83,0 -5.75,0 0,1.91 0,3.82 0,5.73 -1.91,0 -3.83,0 -5.74,0 0,1.91 0,3.82 0,5.73 -1.92,0 -3.84,0 -5.75,0 0,1.91 0,3.83 0,5.74 -1.92,0 -3.83,0 -5.75,0 0,1.91 0,3.82 0,5.73 -1.91,0 -3.83,0 -5.74,0 0,1.91 0,3.82 0,5.73 -1.92,0 -3.84,0 -5.75,0 0,1.91 0,3.83 0,5.74 -1.92,0 -3.83,0 -5.75,0 0,1.91 0,3.82 0,5.73 -1.91,0 -3.83,0 -5.74,0 0,1.91 0,3.82 0,5.73 -1.92,0 -3.83,0 -5.75,0 0,1.91 0,3.83 0,5.74 -1.92,0 -3.83,0 -5.75,0 0,1.91 0,3.82 0,5.73 -1.91,0 -3.83,0 -5.74,0 0,1.91 0,3.82 0,5.73 -2.24,0 -4.48,0 -6.71,0 0,-2.38 0,-4.76 0,-7.14 1.91,0 3.83,0 5.74,0 0,-1.91 0,-3.82 0,-5.73 1.92,0 3.83,0 5.75,0 0,-1.91 0,-3.82 0,-5.74 1.92,0 3.83,0 5.75,0 0,-1.91 0,-3.82 0,-5.73 1.91,0 3.83,0 5.74,0 0,-1.91 0,-3.82 0,-5.73 1.92,0 3.83,0 5.75,0 0,-1.91 0,-3.82 0,-5.74 1.91,0 3.83,0 5.75,0 0,-1.91 0,-3.82 0,-5.73 1.91,0 3.83,0 5.74,0 0,-1.91 0,-3.82 0,-5.73 1.92,0 3.83,0 5.75,0 0,-1.91 0,-3.82 0,-5.74 1.91,0 3.83,0 5.75,0 0,-1.91 0,-3.82 0,-5.73 1.91,0 3.83,0 5.74,0 0,-1.91 0,-3.82 0,-5.73 1.92,0 3.83,0 5.75,0 0,-1.91 0,-3.82 0,-5.74 1.91,0 3.83,0 5.74,0 0,-1.91 0,-3.82 0,-5.73 1.92,0 3.84,0 5.75,0 0,-1.91 0,-3.82 0,-5.73 1.92,0 3.83,0 5.75,0 0,-1.91 0,-3.82 0,-5.74 1.91,0 3.83,0 5.74,0 0,-1.91 0,-3.82 0,-5.73 1.92,0 3.84,0 5.75,0 0,-1.91 0,-3.82 0,-5.73 1.92,0 3.83,0 5.75,0 0,-1.91 0,-3.82 0,-5.73 1.91,0 3.83,0 5.74,0 0,-1.92 0,-3.83 0,-5.74 1.92,0 3.84,0 5.75,0 0,-1.91 0,-3.82 0,-5.73 1.92,0 3.83,0 5.75,0 0,-1.91 0,-3.82 0,-5.73 1.91,0 3.83,0 5.74,0 0,-1.92 0,-3.83 0,-5.74zm-11.14 -9.54c1.92,0 3.83,0 5.75,0 0,-1.91 0,-3.83 0,-5.74 2.24,0 4.47,0 6.71,0 0,2.38 0,4.76 0,7.15 -1.92,0 -3.83,0 -5.75,0 0,1.91 0,3.82 0,5.73 -1.91,0 -3.83,0 -5.74,0 0,1.91 0,3.82 0,5.73 -1.92,0 -3.84,0 -5.75,0 0,1.91 0,3.82 0,5.74 -1.92,0 -3.83,0 -5.75,0 0,1.91 0,3.82 0,5.73 -1.91,0 -3.83,0 -5.74,0 0,1.91 0,3.82 0,5.73 -1.92,0 -3.83,0 -5.75,0 0,1.91 0,3.82 0,5.73 -1.92,0 -3.83,0 -5.75,0 0,1.92 0,3.83 0,5.74 -1.91,0 -3.83,0 -5.74,0 0,1.91 0,3.82 0,5.73 -1.92,0 -3.83,0 -5.75,0 0,1.91 0,3.82 0,5.73 -1.92,0 -3.83,0 -5.75,0 0,1.92 0,3.83 0,5.74 -1.91,0 -3.83,0 -5.74,0 0,1.91 0,3.82 0,5.73 -1.92,0 -3.83,0 -5.75,0 0,1.91 0,3.82 0,5.73 -1.92,0 -3.83,0 -5.75,0 0,1.92 0,3.83 0,5.74 -1.91,0 -3.83,0 -5.74,0 0,1.91 0,3.82 0,5.73 -1.92,0 -3.83,0 -5.75,0 0,1.91 0,3.82 0,5.73 -1.91,0 -3.83,0 -5.75,0 0,1.92 0,3.83 0,5.74 -1.91,0 -3.83,0 -5.74,0 0,1.91 0,3.82 0,5.73 -1.92,0 -3.83,0 -5.75,0 0,1.91 0,3.82 0,5.73 -1.91,0 -3.83,0 -5.75,0 0,1.92 0,3.83 0,5.74 -1.91,0 -3.83,0 -5.74,0 0,1.91 0,3.82 0,5.73 -1.92,0 -3.83,0 -5.75,0 0,1.91 0,3.82 0,5.73 -1.91,0 -3.83,0 -5.74,0 0,1.91 0,3.83 0,5.74 -2.24,0 -4.48,0 -6.71,0 0,-2.38 0,-4.76 0,-7.15 1.91,0 3.83,0 5.74,0 0,-1.91 0,-3.82 0,-5.73 1.92,0 3.83,0 5.75,0 0,-1.91 0,-3.82 0,-5.73 1.91,0 3.83,0 5.74,0 0,-1.91 0,-3.82 0,-5.74 1.92,0 3.84,0 5.75,0 0,-1.91 0,-3.82 0,-5.73 1.92,0 3.83,0 5.75,0 0,-1.91 0,-3.82 0,-5.73 1.91,0 3.83,0 5.74,0 0,-1.91 0,-3.82 0,-5.73 1.92,0 3.84,0 5.75,0 0,-1.92 0,-3.83 0,-5.74 1.92,0 3.83,0 5.75,0 0,-1.91 0,-3.82 0,-5.73 1.91,0 3.83,0 5.74,0 0,-1.91 0,-3.82 0,-5.73 1.92,0 3.83,0 5.75,0 0,-1.92 0,-3.83 0,-5.74 1.92,0 3.83,0 5.75,0 0,-1.91 0,-3.82 0,-5.73 1.91,0 3.83,0 5.74,0 0,-1.91 0,-3.82 0,-5.73 1.92,0 3.83,0 5.75,0 0,-1.92 0,-3.83 0,-5.74 1.92,0 3.83,0 5.75,0 0,-1.91 0,-3.82 0,-5.73 1.91,0 3.83,0 5.74,0 0,-1.91 0,-3.82 0,-5.73 1.92,0 3.83,0 5.75,0 0,-1.92 0,-3.83 0,-5.74 1.92,0 3.83,0 5.75,0 0,-1.91 0,-3.82 0,-5.73 1.91,0 3.83,0 5.74,0 0,-1.91 0,-3.82 0,-5.73 1.92,0 3.83,0 5.75,0 0,-1.91 0,-3.83 0,-5.74 1.91,0 3.83,0 5.75,0 0,-1.91 0,-3.82 0,-5.73 1.91,0 3.83,0 5.74,0 0,-1.91 0,-3.82 0,-5.73zm-11.14 -9.55c1.92,0 3.83,0 5.75,0 0,-1.91 0,-3.82 0,-5.73 2.23,0 4.47,0 6.71,0 0,2.38 0,4.76 0,7.14 -1.92,0 -3.83,0 -5.75,0 0,1.91 0,3.82 0,5.73 -1.91,0 -3.83,0 -5.75,0 0,1.91 0,3.83 0,5.74 -1.91,0 -3.83,0 -5.74,0 0,1.91 0,3.82 0,5.73 -1.92,0 -3.83,0 -5.75,0 0,1.91 0,3.82 0,5.73 -1.91,0 -3.83,0 -5.75,0 0,1.91 0,3.82 0,5.74 -1.91,0 -3.83,0 -5.74,0 0,1.91 0,3.82 0,5.73 -1.92,0 -3.83,0 -5.75,0 0,1.91 0,3.82 0,5.73 -1.91,0 -3.83,0 -5.74,0 0,1.91 0,3.82 0,5.74 -1.92,0 -3.84,0 -5.75,0 0,1.91 0,3.82 0,5.73 -1.92,0 -3.83,0 -5.75,0 0,1.91 0,3.82 0,5.73 -1.91,0 -3.83,0 -5.74,0 0,1.91 0,3.82 0,5.74 -1.92,0 -3.84,0 -5.75,0 0,1.91 0,3.82 0,5.73 -1.92,0 -3.83,0 -5.75,0 0,1.91 0,3.82 0,5.73 -1.91,0 -3.83,0 -5.74,0 0,1.91 0,3.82 0,5.74 -1.92,0 -3.83,0 -5.75,0 0,1.91 0,3.82 0,5.73 -1.92,0 -3.83,0 -5.75,0 0,1.91 0,3.82 0,5.73 -1.91,0 -3.83,0 -5.74,0 0,1.91 0,3.82 0,5.73 -1.92,0 -3.83,0 -5.75,0 0,1.92 0,3.83 0,5.74 -1.92,0 -3.83,0 -5.75,0 0,1.91 0,3.82 0,5.73 -1.91,0 -3.83,0 -5.74,0 0,1.91 0,3.82 0,5.73 -1.92,0 -3.83,0 -5.75,0 0,1.92 0,3.83 0,5.74 -1.92,0 -3.83,0 -5.75,0 0,1.91 0,3.82 0,5.73 -2.23,0 -4.47,0 -6.71,0 0,-2.38 0,-4.76 0,-7.14 1.92,0 3.83,0 5.75,0 0,-1.91 0,-3.82 0,-5.73 1.92,0 3.83,0 5.75,0 0,-1.92 0,-3.83 0,-5.74 1.91,0 3.83,0 5.74,0 0,-1.91 0,-3.82 0,-5.73 1.92,0 3.83,0 5.75,0 0,-1.91 0,-3.82 0,-5.73 1.92,0 3.83,0 5.75,0 0,-1.92 0,-3.83 0,-5.74 1.91,0 3.83,0 5.74,0 0,-1.91 0,-3.82 0,-5.73 1.92,0 3.83,0 5.75,0 0,-1.91 0,-3.82 0,-5.73 1.92,0 3.83,0 5.75,0 0,-1.91 0,-3.83 0,-5.74 1.91,0 3.83,0 5.74,0 0,-1.91 0,-3.82 0,-5.73 1.92,0 3.83,0 5.75,0 0,-1.91 0,-3.82 0,-5.73 1.91,0 3.83,0 5.75,0 0,-1.91 0,-3.83 0,-5.74 1.91,0 3.83,0 5.74,0 0,-1.91 0,-3.82 0,-5.73 1.92,0 3.83,0 5.75,0 0,-1.91 0,-3.82 0,-5.73 1.91,0 3.83,0 5.75,0 0,-1.91 0,-3.83 0,-5.74 1.91,0 3.83,0 5.74,0 0,-1.91 0,-3.82 0,-5.73 1.92,0 3.83,0 5.75,0 0,-1.91 0,-3.82 0,-5.73 1.91,0 3.83,0 5.74,0 0,-1.91 0,-3.83 0,-5.74 1.92,0 3.84,0 5.75,0 0,-1.91 0,-3.82 0,-5.73 1.92,0 3.83,0 5.75,0 0,-1.91 0,-3.82 0,-5.73 1.91,0 3.83,0 5.74,0 0,-1.91 0,-3.83 0,-5.74 1.92,0 3.84,0 5.75,0 0,-1.91 0,-3.82 0,-5.73zm-11.14 -9.55c1.92,0 3.83,0 5.75,0 0,-1.91 0,-3.82 0,-5.73 2.23,0 4.47,0 6.71,0 0,2.38 0,4.76 0,7.14 -1.92,0 -3.83,0 -5.75,0 0,1.92 0,3.83 0,5.74 -1.92,0 -3.83,0 -5.75,0 0,1.91 0,3.82 0,5.73 -1.91,0 -3.83,0 -5.74,0 0,1.91 0,3.82 0,5.73 -1.92,0 -3.83,0 -5.75,0 0,1.91 0,3.83 0,5.74 -1.92,0 -3.83,0 -5.75,0 0,1.91 0,3.82 0,5.73 -1.91,0 -3.83,0 -5.74,0 0,1.91 0,3.82 0,5.73 -1.92,0 -3.83,0 -5.75,0 0,1.91 0,3.83 0,5.74 -1.92,0 -3.83,0 -5.75,0 0,1.91 0,3.82 0,5.73 -1.91,0 -3.83,0 -5.74,0 0,1.91 0,3.82 0,5.73 -1.92,0 -3.83,0 -5.75,0 0,1.91 0,3.83 0,5.74 -1.91,0 -3.83,0 -5.75,0 0,1.91 0,3.82 0,5.73 -1.91,0 -3.83,0 -5.74,0 0,1.91 0,3.82 0,5.73 -1.92,0 -3.83,0 -5.75,0 0,1.91 0,3.83 0,5.74 -1.91,0 -3.83,0 -5.75,0 0,1.91 0,3.82 0,5.73 -1.91,0 -3.83,0 -5.74,0 0,1.91 0,3.82 0,5.73 -1.92,0 -3.83,0 -5.75,0 0,1.91 0,3.82 0,5.74 -1.91,0 -3.83,0 -5.74,0 0,1.91 0,3.82 0,5.73 -1.92,0 -3.84,0 -5.75,0 0,1.91 0,3.82 0,5.73 -1.92,0 -3.83,0 -5.75,0 0,1.91 0,3.82 0,5.74 -1.91,0 -3.83,0 -5.74,0 0,1.91 0,3.82 0,5.73 -1.92,0 -3.84,0 -5.75,0 0,1.91 0,3.82 0,5.73 -1.92,0 -3.83,0 -5.75,0 0,1.91 0,3.82 0,5.74 -2.23,0 -4.47,0 -6.71,0 0,-2.39 0,-4.77 0,-7.15 1.92,0 3.83,0 5.75,0 0,-1.91 0,-3.82 0,-5.73 1.91,0 3.83,0 5.75,0 0,-1.91 0,-3.82 0,-5.73 1.91,0 3.83,0 5.74,0 0,-1.91 0,-3.83 0,-5.74 1.92,0 3.83,0 5.75,0 0,-1.91 0,-3.82 0,-5.73 1.91,0 3.83,0 5.75,0 0,-1.91 0,-3.82 0,-5.73 1.91,0 3.83,0 5.74,0 0,-1.91 0,-3.83 0,-5.74 1.92,0 3.83,0 5.75,0 0,-1.91 0,-3.82 0,-5.73 1.91,0 3.83,0 5.74,0 0,-1.91 0,-3.82 0,-5.73 1.92,0 3.84,0 5.75,0 0,-1.91 0,-3.82 0,-5.74 1.92,0 3.83,0 5.75,0 0,-1.91 0,-3.82 0,-5.73 1.91,0 3.83,0 5.74,0 0,-1.91 0,-3.82 0,-5.73 1.92,0 3.84,0 5.75,0 0,-1.91 0,-3.82 0,-5.74 1.92,0 3.83,0 5.75,0 0,-1.91 0,-3.82 0,-5.73 1.91,0 3.83,0 5.74,0 0,-1.91 0,-3.82 0,-5.73 1.92,0 3.83,0 5.75,0 0,-1.91 0,-3.82 0,-5.74 1.92,0 3.83,0 5.75,0 0,-1.91 0,-3.82 0,-5.73 1.91,0 3.83,0 5.74,0 0,-1.91 0,-3.82 0,-5.73 1.92,0 3.83,0 5.75,0 0,-1.91 0,-3.82 0,-5.74 1.92,0 3.83,0 5.75,0 0,-1.91 0,-3.82 0,-5.73 1.91,0 3.83,0 5.74,0 0,-1.91 0,-3.82 0,-5.73 1.92,0 3.83,0 5.75,0 0,-1.91 0,-3.82 0,-5.74zm-11.14 -9.54c1.91,0 3.83,0 5.74,0 0,-1.91 0,-3.82 0,-5.73 2.24,0 4.48,0 6.71,0 0,2.38 0,4.76 0,7.14 -1.91,0 -3.83,0 -5.74,0 0,1.91 0,3.82 0,5.73 -1.92,0 -3.83,0 -5.75,0 0,1.91 0,3.82 0,5.73 -1.91,0 -3.83,0 -5.75,0 0,1.92 0,3.83 0,5.74 -1.91,0 -3.83,0 -5.74,0 0,1.91 0,3.82 0,5.73 -1.92,0 -3.83,0 -5.75,0 0,1.91 0,3.82 0,5.73 -1.91,0 -3.83,0 -5.74,0 0,1.92 0,3.83 0,5.74 -1.92,0 -3.84,0 -5.75,0 0,1.91 0,3.82 0,5.73 -1.92,0 -3.83,0 -5.75,0 0,1.91 0,3.82 0,5.73 -1.91,0 -3.83,0 -5.74,0 0,1.92 0,3.83 0,5.74 -1.92,0 -3.84,0 -5.75,0 0,1.91 0,3.82 0,5.73 -1.92,0 -3.83,0 -5.75,0 0,1.91 0,3.82 0,5.73 -1.91,0 -3.83,0 -5.74,0 0,1.92 0,3.83 0,5.74 -1.92,0 -3.83,0 -5.75,0 0,1.91 0,3.82 0,5.73 -1.92,0 -3.83,0 -5.75,0 0,1.91 0,3.82 0,5.73 -1.91,0 -3.83,0 -5.74,0 0,1.91 0,3.83 0,5.74 -1.92,0 -3.83,0 -5.75,0 0,1.91 0,3.82 0,5.73 -1.92,0 -3.83,0 -5.75,0 0,1.91 0,3.82 0,5.73 -1.91,0 -3.83,0 -5.74,0 0,1.91 0,3.83 0,5.74 -1.92,0 -3.83,0 -5.75,0 0,1.91 0,3.82 0,5.73 -1.91,0 -3.83,0 -5.75,0 0,1.91 0,3.82 0,5.73 -1.91,0 -3.83,0 -5.74,0 0,1.91 0,3.83 0,5.74 -1.92,0 -3.83,0 -5.75,0 0,1.91 0,3.82 0,5.73 -2.24,0 -4.47,0 -6.71,0 0,-2.38 0,-4.76 0,-7.14 1.92,0 3.83,0 5.75,0 0,-1.91 0,-3.82 0,-5.74 1.91,0 3.83,0 5.74,0 0,-1.91 0,-3.82 0,-5.73 1.92,0 3.84,0 5.75,0 0,-1.91 0,-3.82 0,-5.73 1.92,0 3.83,0 5.75,0 0,-1.91 0,-3.82 0,-5.74 1.91,0 3.83,0 5.74,0 0,-1.91 0,-3.82 0,-5.73 1.92,0 3.83,0 5.75,0 0,-1.91 0,-3.82 0,-5.73 1.92,0 3.83,0 5.75,0 0,-1.91 0,-3.82 0,-5.74 1.91,0 3.83,0 5.74,0 0,-1.91 0,-3.82 0,-5.73 1.92,0 3.83,0 5.75,0 0,-1.91 0,-3.82 0,-5.73 1.92,0 3.83,0 5.75,0 0,-1.91 0,-3.82 0,-5.74 1.91,0 3.83,0 5.74,0 0,-1.91 0,-3.82 0,-5.73 1.92,0 3.83,0 5.75,0 0,-1.91 0,-3.82 0,-5.73 1.91,0 3.83,0 5.75,0 0,-1.91 0,-3.82 0,-5.73 1.91,0 3.83,0 5.74,0 0,-1.92 0,-3.83 0,-5.74 1.92,0 3.83,0 5.75,0 0,-1.91 0,-3.82 0,-5.73 1.91,0 3.83,0 5.75,0 0,-1.91 0,-3.82 0,-5.73 1.91,0 3.83,0 5.74,0 0,-1.92 0,-3.83 0,-5.74 1.92,0 3.83,0 5.75,0 0,-1.91 0,-3.82 0,-5.73 1.91,0 3.83,0 5.75,0 0,-1.91 0,-3.82 0,-5.73 1.91,0 3.83,0 5.74,0 0,-1.92 0,-3.83 0,-5.74 1.92,0 3.83,0 5.75,0 0,-1.91 0,-3.82 0,-5.73zm-11.14 -9.55l5.74 0 0 -5.73 6.71 0 0 7.14 -5.74 0 0 5.74 -5.75 0 0 5.73 -5.75 0 0 5.73 -5.74 0 0 5.74 -5.75 0 0 5.73 -5.75 0 0 5.73 -5.74 0 0 5.74 -5.75 0 0 5.73 -5.75 0 0 5.73 -5.74 0 0 5.73 -5.75 0 0 5.74 -5.74 0 0 5.73 -5.75 0 0 5.73 -5.75 0 0 5.74 -5.74 0 0 5.73 -5.75 0 0 5.73 -5.75 0 0 5.74 -5.74 0 0 5.73 -5.75 0 0 5.73 -5.75 0 0 5.74 -5.74 0 0 5.73 -5.75 0 0 5.73 -6.71 0 0 -7.14 5.75 0 0 -5.73 5.74 0 0 -5.73 5.75 0 0 -5.74 5.75 0 0 -5.73 5.74 0 0 -5.73 5.75 0 0 -5.74 5.75 0 0 -5.73 5.74 0 0 -5.73 5.75 0 0 -5.74 5.75 0 0 -5.73 5.74 0 0 -5.73 5.75 0 0 -5.74 5.74 0 0 -5.73 5.75 0 0 -5.73 5.75 0 0 -5.74 5.74 0 0 -5.73 5.75 0 0 -5.73 5.75 0 0 -5.74 5.74 0 0 -5.73 5.75 0 0 -5.73 5.75 0 0 -5.74z"/>
 </g>
</svg>
