<?xml version="1.0" encoding="UTF-8"?>
<!DOCTYPE svg PUBLIC "-//W3C//DTD SVG 1.1//EN" "http://www.w3.org/Graphics/SVG/1.1/DTD/svg11.dtd">
<!-- Creator: CorelDRAW 2026 -->
<svg xmlns="http://www.w3.org/2000/svg" xml:space="preserve" width="193px" height="145px" version="1.1" style="shape-rendering:geometricPrecision; text-rendering:geometricPrecision; image-rendering:optimizeQuality; fill-rule:evenodd; clip-rule:evenodd"
viewBox="0 0 193 144.75"
 xmlns:xlink="http://www.w3.org/1999/xlink"
 xmlns:xodm="http://www.corel.com/coreldraw/odm/2003">
 <defs>
  <style type="text/css">
   <![CDATA[
    .fil0 {fill:white;fill-rule:nonzero}
   ]]>
  </style>
 </defs>
 <g id="Layer_x0020_1">
  <metadata id="CorelCorpID_0Corel-Layer"/>
  <path id="faceball" class="fil0" d="M96.5 144.75c53.29,0 96.5,-35.81 96.5,-74.57 0,-38.76 -43.2,-70.18 -96.5,-70.18 -53.29,0 -96.5,31.42 -96.5,70.18 0,38.76 43.2,74.57 96.5,74.57zm-21.36 -56.96c-4,-6.58 -11.23,-10.97 -19.49,-10.97l-4.42 0c-8.26,0 -15.49,4.39 -19.49,10.97 -2.1,-3.66 -3.3,-7.9 -3.3,-12.43l0 -6.49c0,-13.81 11.19,-25.01 25,-25.01 13.81,0 25,11.2 25,25.01l0 6.49c0,4.53 -1.2,8.77 -3.3,12.43l0 0zm86.2 0.53c-3.98,-6.65 -11.25,-11.11 -19.57,-11.11l-4.42 0c-8.32,0 -15.59,4.46 -19.57,11.11 -2.05,-3.63 -3.22,-7.82 -3.22,-12.29l0 -7.16c0,-13.81 11.19,-25.01 25,-25.01 13.81,0 25,11.2 25,25.01l0 7.16c0,4.47 -1.17,8.66 -3.22,12.29l0 0z"/>
 </g>
</svg>
