<?xml version="1.0" encoding="UTF-8"?>
<!DOCTYPE svg PUBLIC "-//W3C//DTD SVG 1.1//EN" "http://www.w3.org/Graphics/SVG/1.1/DTD/svg11.dtd">
<!-- Creator: CorelDRAW 2026 -->
<svg xmlns="http://www.w3.org/2000/svg" xml:space="preserve" width="705px" height="441px" version="1.1" style="shape-rendering:geometricPrecision; text-rendering:geometricPrecision; image-rendering:optimizeQuality; fill-rule:evenodd; clip-rule:evenodd"
viewBox="0 0 61.41 38.47"
 xmlns:xlink="http://www.w3.org/1999/xlink"
 xmlns:xodm="http://www.corel.com/coreldraw/odm/2003">
 <defs>
  <style type="text/css">
   <![CDATA[
    .str0 {stroke:#E6E7E8;stroke-width:0.21;stroke-miterlimit:22.9256}
    .fil0 {fill:#E6E7E8}
   ]]>
  </style>
 </defs>
 <g id="Layer_x0020_1">
  <metadata id="CorelCorpID_0Corel-Layer"/>
  <path id="constellation" class="fil0 str0" d="M59.41 30.1l0.04 0c0,1.07 0.88,1.95 1.96,1.95l0 0c-1.08,0 -1.96,0.88 -1.96,1.96l-0.04 0c0,-1.08 -0.89,-1.96 -1.96,-1.96l0 0c1.07,0 1.96,-0.88 1.96,-1.95zm0 -27.17l0.03 0c0,0.73 0.6,1.33 1.33,1.33l0 0c-0.73,0 -1.33,0.6 -1.33,1.33l-0.03 0c0,-0.73 -0.6,-1.33 -1.32,-1.33l0 0c0.72,0 1.32,-0.6 1.32,-1.33zm-52.36 -0.17l0.04 0c0,0.8 0.66,1.46 1.46,1.46l0 0c-0.8,0 -1.46,0.66 -1.46,1.46l-0.04 0c0,-0.8 -0.65,-1.46 -1.46,-1.46l0 0c0.81,0 1.46,-0.66 1.46,-1.46zm44.73 5.11c0.9,0 1.64,0.73 1.64,1.63 0,0.91 -0.74,1.64 -1.64,1.64 -0.9,0 -1.63,-0.73 -1.63,-1.64 0,-0.9 0.73,-1.63 1.63,-1.63zm-13.72 -2.05c0.63,0 1.15,0.51 1.15,1.14 0,0.63 -0.52,1.14 -1.15,1.14 -0.63,0 -1.14,-0.51 -1.14,-1.14 0,-0.63 0.51,-1.14 1.14,-1.14zm-22.84 -5.72c0.63,0 1.14,0.51 1.14,1.14 0,0.64 -0.51,1.15 -1.14,1.15 -0.63,0 -1.15,-0.51 -1.15,-1.15 0,-0.63 0.52,-1.14 1.15,-1.14zm2 12.14c0.52,0 0.94,0.42 0.94,0.94 0,0.51 -0.42,0.93 -0.94,0.93 -0.51,0 -0.93,-0.42 -0.93,-0.93 0,-0.52 0.42,-0.94 0.93,-0.94zm-16.14 24.17c0.54,0 0.98,0.44 0.98,0.98 0,0.54 -0.44,0.98 -0.98,0.98 -0.54,0 -0.98,-0.44 -0.98,-0.98 0,-0.54 0.44,-0.98 0.98,-0.98zm1.14 -26.2c0.6,0 1.08,0.48 1.08,1.08 0,0.6 -0.48,1.09 -1.08,1.09 -0.6,0 -1.09,-0.49 -1.09,-1.09 0,-0.6 0.49,-1.08 1.09,-1.08zm41.2 -8.97c0.31,0 0.57,0.26 0.57,0.58 0,0.31 -0.26,0.57 -0.57,0.57 -0.32,0 -0.57,-0.26 -0.57,-0.57 0,-0.32 0.25,-0.58 0.57,-0.58z"/>
 </g>
</svg>
