<?xml version="1.0" encoding="UTF-8"?>
<!DOCTYPE svg PUBLIC "-//W3C//DTD SVG 1.1//EN" "http://www.w3.org/Graphics/SVG/1.1/DTD/svg11.dtd">
<!-- Creator: CorelDRAW 2026 -->
<svg xmlns="http://www.w3.org/2000/svg" xml:space="preserve" width="494px" height="377px" version="1.1" style="shape-rendering:geometricPrecision; text-rendering:geometricPrecision; image-rendering:optimizeQuality; fill-rule:evenodd; clip-rule:evenodd"
viewBox="0 0 83.19 63.43"
 xmlns:xlink="http://www.w3.org/1999/xlink"
 xmlns:xodm="http://www.corel.com/coreldraw/odm/2003">
 <defs>
  <style type="text/css">
   <![CDATA[
    .fil0 {fill:gray}
   ]]>
  </style>
 </defs>
 <g id="Layer_x0020_1">
  <metadata id="CorelCorpID_0Corel-Layer"/>
  <path id="ernest_wing_inner" class="fil0" d="M38.25 0.49c22.89,-3.06 42.95,8.44 44.8,25.68 1.85,17.25 -15.21,33.71 -38.11,36.77 -22.9,3.06 -42.95,-8.44 -44.8,-25.69 -1.48,-13.81 9.18,-27.12 25.25,-33.44 -0.03,4.49 0.05,10.15 0.37,16.78 0.85,17.65 11.99,28.93 11.99,28.93l8.29 0c0,0 -9.78,-5.74 -14.61,-23.75 -2.4,-8.99 -2.23,-17.38 -1.45,-23.53 2.64,-0.78 5.41,-1.37 8.27,-1.75z"/>
 </g>
</svg>
