<?xml version="1.0" encoding="UTF-8"?>
<!DOCTYPE svg PUBLIC "-//W3C//DTD SVG 1.1//EN" "http://www.w3.org/Graphics/SVG/1.1/DTD/svg11.dtd">
<!-- Creator: CorelDRAW 2026 -->
<svg xmlns="http://www.w3.org/2000/svg" xml:space="preserve" width="652px" height="130px" version="1.1" style="shape-rendering:geometricPrecision; text-rendering:geometricPrecision; image-rendering:optimizeQuality; fill-rule:evenodd; clip-rule:evenodd"
viewBox="0 0 66.85 13.32"
 xmlns:xlink="http://www.w3.org/1999/xlink"
 xmlns:xodm="http://www.corel.com/coreldraw/odm/2003">
 <defs>
  <style type="text/css">
   <![CDATA[
    .fil0 {fill:#D2D4D5}
   ]]>
  </style>
 </defs>
 <g id="Layer_x0020_1">
  <metadata id="CorelCorpID_0Corel-Layer"/>
  <g id="airpods">
   <path class="fil0" d="M60.51 1.2l-0.01 5.41c0,0 0.01,0.54 0.83,1 0.82,0.46 1.57,0 1.57,0l-1.2 4.43c0,0 -0.25,0.58 0.47,1.08 0.73,0.51 1.37,-0.1 1.37,-0.1l3.09 -8.16c0,0 0.6,-1.63 -0.17,-2.79 -0.77,-1.16 -2.36,-2.07 -3.06,-2.07 -0.7,0 -2.02,0 -2.02,0 0,0 -0.88,0 -0.87,1.2zm4.11 1.47c-0.52,0 -0.94,0.42 -0.94,0.93 0,0.51 0.42,0.93 0.94,0.93 0.52,0 0.94,-0.42 0.94,-0.93 0,-0.51 -0.42,-0.93 -0.94,-0.93z"/>
   <path class="fil0" d="M6.34 1.2l0.01 5.41c0,0 -0.01,0.54 -0.83,1 -0.82,0.46 -1.56,0 -1.56,0l1.19 4.43c0,0 0.25,0.58 -0.47,1.08 -0.72,0.51 -1.37,-0.1 -1.37,-0.1l-3.09 -8.16c0,0 -0.6,-1.63 0.17,-2.79 0.77,-1.16 2.36,-2.07 3.06,-2.07 0.7,0 2.02,0 2.02,0 0,0 0.88,0 0.87,1.2zm-4.11 1.47c0.52,0 0.95,0.42 0.95,0.93 0,0.51 -0.43,0.93 -0.95,0.93 -0.52,0 -0.94,-0.42 -0.94,-0.93 0,-0.51 0.42,-0.93 0.94,-0.93z"/>
  </g>
 </g>
</svg>
