<?xml version="1.0" encoding="UTF-8"?>
<!DOCTYPE svg PUBLIC "-//W3C//DTD SVG 1.1//EN" "http://www.w3.org/Graphics/SVG/1.1/DTD/svg11.dtd">
<!-- Creator: CorelDRAW 2026 -->
<svg xmlns="http://www.w3.org/2000/svg" xml:space="preserve" width="1042px" height="636px" version="1.1" style="shape-rendering:geometricPrecision; text-rendering:geometricPrecision; image-rendering:optimizeQuality; fill-rule:evenodd; clip-rule:evenodd"
viewBox="0 0 182.29 111.26"
 xmlns:xlink="http://www.w3.org/1999/xlink"
 xmlns:xodm="http://www.corel.com/coreldraw/odm/2003">
 <defs>
  <style type="text/css">
   <![CDATA[
    .fil1 {fill:#BDBFC1}
    .fil0 {fill:#BDBFC1}
   ]]>
  </style>
 </defs>
 <g id="Layer_x0020_1">
  <metadata id="CorelCorpID_0Corel-Layer"/>
  <g id="airpod_lines">
   <polygon class="fil0" points="166.89,51.99 182.29,51.99 157.62,0 142.82,0 "/>
   <g>
    <path class="fil1" d="M138.32 51.99c5.14,0 10.27,0 15.41,0 -8.23,-17.33 -16.45,-34.66 -24.67,-51.99 -4.94,0 -9.87,0 -14.81,0 8.03,17.33 16.05,34.66 24.07,51.99z"/>
    <path class="fil1" d="M109.76 51.99c5.13,0 10.27,0 15.4,0 -8.22,-17.33 -16.44,-34.66 -24.67,-51.99 -4.93,0 -9.87,0 -14.8,0 8.02,17.33 16.05,34.66 24.07,51.99z"/>
    <path class="fil1" d="M81.2 51.99c5.13,0 10.26,0 15.4,0 -8.22,-17.33 -16.45,-34.66 -24.67,-51.99 -4.93,0 -9.87,0 -14.8,0 8.02,17.33 16.04,34.66 24.07,51.99z"/>
    <path class="fil1" d="M52.63 51.99c5.14,0 10.27,0 15.41,0 -8.23,-17.33 -16.45,-34.66 -24.67,-51.99 -4.94,0 -9.87,0 -14.81,0 8.03,17.33 16.05,34.66 24.07,51.99z"/>
   </g>
   <polygon class="fil0" points="24.07,51.99 39.47,51.99 14.8,0 0,0 "/>
   <polygon class="fil0" points="15.4,111.26 0,111.26 24.67,59.27 39.47,59.27 "/>
   <g>
    <path class="fil1" d="M43.97 111.26c-5.14,0 -10.27,0 -15.41,0 8.23,-17.33 16.45,-34.66 24.67,-51.99 4.94,0 9.87,0 14.81,0 -8.03,17.33 -16.05,34.66 -24.07,51.99z"/>
    <path class="fil1" d="M72.53 111.26c-5.13,0 -10.27,0 -15.4,0 8.22,-17.33 16.44,-34.66 24.67,-51.99 4.93,0 9.87,0 14.8,0 -8.02,17.33 -16.05,34.66 -24.07,51.99z"/>
    <path class="fil1" d="M101.09 111.26c-5.13,0 -10.26,0 -15.4,0 8.22,-17.33 16.45,-34.66 24.67,-51.99 4.93,0 9.87,0 14.8,0 -8.02,17.33 -16.04,34.66 -24.07,51.99z"/>
    <path class="fil1" d="M129.66 111.26c-5.14,0 -10.27,0 -15.41,0 8.23,-17.33 16.45,-34.66 24.67,-51.99 4.94,0 9.87,0 14.81,0 -8.03,17.33 -16.05,34.66 -24.07,51.99z"/>
   </g>
   <polygon class="fil0" points="158.22,111.26 142.82,111.26 167.49,59.27 182.29,59.27 "/>
  </g>
 </g>
</svg>
