<?xml version="1.0" encoding="UTF-8"?>
<!DOCTYPE svg PUBLIC "-//W3C//DTD SVG 1.1//EN" "http://www.w3.org/Graphics/SVG/1.1/DTD/svg11.dtd">
<!-- Creator: CorelDRAW 2026 -->
<svg xmlns="http://www.w3.org/2000/svg" xml:space="preserve" width="460px" height="265px" version="1.1" style="shape-rendering:geometricPrecision; text-rendering:geometricPrecision; image-rendering:optimizeQuality; fill-rule:evenodd; clip-rule:evenodd"
viewBox="0 0 66 38.01"
 xmlns:xlink="http://www.w3.org/1999/xlink"
 xmlns:xodm="http://www.corel.com/coreldraw/odm/2003">
 <defs>
  <style type="text/css">
   <![CDATA[
    .fil0 {fill:white}
   ]]>
  </style>
 </defs>
 <g id="Layer_x0020_1">
  <metadata id="CorelCorpID_0Corel-Layer"/>
  <g id="dino_vertebrae">
   <polygon class="fil0" points="5.07,32.97 0.87,29.04 1.5,27.04 0,24.74 0.63,22.6 4.28,23.55 5.62,22.6 19.56,30.28 "/>
   <polygon class="fil0" points="8.16,18.17 8.71,16.35 8,15.21 8.55,12.9 11.81,12.7 12.96,11.7 49.84,28.09 52.19,38.01 29.31,35.72 27.02,29.04 "/>
   <polygon class="fil0" points="50.98,16.8 66,14.33 55.51,28.67 48.06,21.5 14.12,8.2 13.78,4.87 12,4.41 13.15,1.55 15.04,1.83 15.73,0 52.76,8.71 "/>
  </g>
 </g>
</svg>
