<?xml version="1.0" encoding="UTF-8"?>
<!DOCTYPE svg PUBLIC "-//W3C//DTD SVG 1.1//EN" "http://www.w3.org/Graphics/SVG/1.1/DTD/svg11.dtd">
<!-- Creator: CorelDRAW 2026 -->
<svg xmlns="http://www.w3.org/2000/svg" xml:space="preserve" width="485px" height="512px" version="1.1" style="shape-rendering:geometricPrecision; text-rendering:geometricPrecision; image-rendering:optimizeQuality; fill-rule:evenodd; clip-rule:evenodd"
viewBox="0 0 68.87 72.81"
 xmlns:xlink="http://www.w3.org/1999/xlink"
 xmlns:xodm="http://www.corel.com/coreldraw/odm/2003">
 <defs>
  <style type="text/css">
   <![CDATA[
    .fil0 {fill:white}
   ]]>
  </style>
 </defs>
 <g id="Layer_x0020_1">
  <metadata id="CorelCorpID_0Corel-Layer"/>
  <path id="dino_skull" class="fil0" d="M1.76 63.77l37.06 9.04 26.28 -11.81 3.77 -5.13 -5.44 -10.73 -2.19 0.68 -2.49 7.4 -7.17 -2.86 -3.63 7.77 -6.19 -3.24 -7.02 4.09 -0.61 -17.61 8.24 3.93 4.07 -9.07 7.63 4.61 3.17 -8.84 7.1 3.33 2.12 -1.59 -2.72 -19.78 -7.18 -2.57 -38.36 15.18 -4.08 -8.37c0,0 2.95,-2.05 3.7,-4.92 0.76,-2.87 -1.51,-6.5 -1.51,-6.5 0,0 -1.36,-3.02 -5.74,-5.81 -4.38,-2.8 -7.55,1.36 -7.55,1.36 0,0 -2.91,4.33 -1.26,10.12 1.64,5.78 4.73,6.34 4.73,6.34 0,0 1.36,0.83 2.65,0.6 1.28,-0.22 2.41,-0.37 2.41,-0.37l3.7 8.83 -8.98 3.7 -0.98 5.59 -2.87 1.74 -0.68 4.57 2.72 2.68 -0.84 3.47 -2.94 1.89 -0.68 4.15 2.79 2.95 -1.03 5.18zm17.91 -30.66c3.85,0 6.97,3.12 6.97,6.97 0,3.85 -3.12,6.98 -6.97,6.98 -3.85,0 -6.98,-3.13 -6.98,-6.98 0,-3.85 3.13,-6.97 6.98,-6.97z"/>
 </g>
</svg>
