<?xml version="1.0" encoding="UTF-8"?>
<!DOCTYPE svg PUBLIC "-//W3C//DTD SVG 1.1//EN" "http://www.w3.org/Graphics/SVG/1.1/DTD/svg11.dtd">
<!-- Creator: CorelDRAW 2026 -->
<svg xmlns="http://www.w3.org/2000/svg" xml:space="preserve" width="31px" height="18px" version="1.1" style="shape-rendering:geometricPrecision; text-rendering:geometricPrecision; image-rendering:optimizeQuality; fill-rule:evenodd; clip-rule:evenodd"
viewBox="0 0 1 0.59"
 xmlns:xlink="http://www.w3.org/1999/xlink"
 xmlns:xodm="http://www.corel.com/coreldraw/odm/2003">
 <defs>
  <style type="text/css">
   <![CDATA[
    .fil0 {fill:#7B76B6}
   ]]>
  </style>
 </defs>
 <g id="Layer_x0020_1">
  <metadata id="CorelCorpID_0Corel-Layer"/>
  <g id="_35339948384">
   <path class="fil0" d="M0.92 0.13c0,0 -0.01,0.34 -0.19,0.38 -0.18,0.03 -0.23,-0.1 -0.23,-0.1 0,0 -0.11,0.15 -0.27,0.09 -0.16,-0.07 -0.15,-0.36 -0.15,-0.36 0,0 0.08,-0.11 0.13,-0.02 0.06,0.09 0.01,0.22 0.09,0.26 0.09,0.04 0.1,-0.14 0.12,-0.16 0.02,-0.02 0.07,-0.09 0.14,-0.01 0.07,0.07 0.01,0.14 0.11,0.17 0.1,0.03 0.1,-0.27 0.1,-0.27 0,0 0.09,-0.09 0.15,0.02z"/>
   <path class="fil0" d="M0.08 0.13c0,0 0.01,0.34 0.19,0.38 0.17,0.03 0.23,-0.1 0.23,-0.1 0,0 0.1,0.15 0.26,0.09 0.17,-0.07 0.16,-0.36 0.16,-0.36 0,0 -0.09,-0.11 -0.14,-0.02 -0.05,0.09 0,0.22 -0.09,0.26 -0.08,0.04 -0.09,-0.14 -0.11,-0.16 -0.03,-0.02 -0.07,-0.09 -0.14,-0.01 -0.08,0.07 -0.01,0.14 -0.11,0.17 -0.1,0.03 -0.11,-0.27 -0.11,-0.27 0,0 -0.08,-0.09 -0.14,0.02z"/>
  </g>
 </g>
</svg>
